<mxfile host="localhost" agent="Mozilla/5.0 (X11; Linux x86_64) AppleWebKit/537.36 (KHTML, like Gecko) Chrome/130.0.0.0 Safari/537.36" version="24.7.5">
  <diagram name="Page-1" id="m51g9XY2cPaT6PWMSC6m">
    <mxGraphModel dx="953" dy="566" grid="1" gridSize="10" guides="1" tooltips="1" connect="1" arrows="1" fold="1" page="1" pageScale="1" pageWidth="850" pageHeight="1100" math="0" shadow="0">
      <root>
        <mxCell id="0" />
        <mxCell id="1" parent="0" />
        <mxCell id="NSiBCy43P0qRrKqBQ_9c-13" style="edgeStyle=orthogonalEdgeStyle;rounded=0;orthogonalLoop=1;jettySize=auto;html=1;endArrow=none;endFill=0;fillColor=#f8cecc;strokeColor=#b85450;" edge="1" parent="1" source="NSiBCy43P0qRrKqBQ_9c-1" target="NSiBCy43P0qRrKqBQ_9c-9">
          <mxGeometry relative="1" as="geometry" />
        </mxCell>
        <mxCell id="NSiBCy43P0qRrKqBQ_9c-16" style="edgeStyle=orthogonalEdgeStyle;rounded=0;orthogonalLoop=1;jettySize=auto;html=1;startArrow=none;startFill=0;fillColor=#d5e8d4;strokeColor=#82b366;" edge="1" parent="1" source="NSiBCy43P0qRrKqBQ_9c-1" target="NSiBCy43P0qRrKqBQ_9c-15">
          <mxGeometry relative="1" as="geometry" />
        </mxCell>
        <mxCell id="NSiBCy43P0qRrKqBQ_9c-1" value="AWS WAF" style="sketch=0;points=[[0,0,0],[0.25,0,0],[0.5,0,0],[0.75,0,0],[1,0,0],[0,1,0],[0.25,1,0],[0.5,1,0],[0.75,1,0],[1,1,0],[0,0.25,0],[0,0.5,0],[0,0.75,0],[1,0.25,0],[1,0.5,0],[1,0.75,0]];outlineConnect=0;fontColor=#232F3E;fillColor=#DD344C;strokeColor=#ffffff;dashed=0;verticalLabelPosition=bottom;verticalAlign=top;align=center;html=1;fontSize=12;fontStyle=0;aspect=fixed;shape=mxgraph.aws4.resourceIcon;resIcon=mxgraph.aws4.waf;" vertex="1" parent="1">
          <mxGeometry x="140" y="200" width="78" height="78" as="geometry" />
        </mxCell>
        <mxCell id="NSiBCy43P0qRrKqBQ_9c-3" value="Vulnerable &lt;br&gt;Lambda Function" style="outlineConnect=0;dashed=0;verticalLabelPosition=bottom;verticalAlign=top;align=center;html=1;shape=mxgraph.aws3.lambda_function;fillColor=#F58534;gradientColor=none;" vertex="1" parent="1">
          <mxGeometry x="580" y="203" width="69" height="72" as="geometry" />
        </mxCell>
        <mxCell id="NSiBCy43P0qRrKqBQ_9c-4" value="Good User" style="shape=actor;whiteSpace=wrap;html=1;labelPosition=center;verticalLabelPosition=bottom;align=center;verticalAlign=top;" vertex="1" parent="1">
          <mxGeometry x="10" y="320" width="40" height="60" as="geometry" />
        </mxCell>
        <mxCell id="NSiBCy43P0qRrKqBQ_9c-6" value="Bad User" style="shape=actor;whiteSpace=wrap;html=1;labelPosition=center;verticalLabelPosition=bottom;align=center;verticalAlign=top;" vertex="1" parent="1">
          <mxGeometry x="10" y="100" width="40" height="60" as="geometry" />
        </mxCell>
        <mxCell id="NSiBCy43P0qRrKqBQ_9c-7" style="edgeStyle=orthogonalEdgeStyle;rounded=0;orthogonalLoop=1;jettySize=auto;html=1;entryX=0;entryY=0.75;entryDx=0;entryDy=0;entryPerimeter=0;exitX=0.9;exitY=0.5;exitDx=0;exitDy=0;exitPerimeter=0;fillColor=#d5e8d4;strokeColor=#82b366;" edge="1" parent="1" source="NSiBCy43P0qRrKqBQ_9c-4" target="NSiBCy43P0qRrKqBQ_9c-1">
          <mxGeometry relative="1" as="geometry">
            <Array as="points">
              <mxPoint x="95" y="350" />
              <mxPoint x="95" y="259" />
            </Array>
          </mxGeometry>
        </mxCell>
        <mxCell id="NSiBCy43P0qRrKqBQ_9c-8" style="edgeStyle=orthogonalEdgeStyle;rounded=0;orthogonalLoop=1;jettySize=auto;html=1;entryX=0;entryY=0.25;entryDx=0;entryDy=0;entryPerimeter=0;exitX=1;exitY=0.75;exitDx=0;exitDy=0;fillColor=#f8cecc;strokeColor=#b85450;" edge="1" parent="1" source="NSiBCy43P0qRrKqBQ_9c-6" target="NSiBCy43P0qRrKqBQ_9c-1">
          <mxGeometry relative="1" as="geometry">
            <Array as="points">
              <mxPoint x="50" y="150" />
              <mxPoint x="95" y="150" />
              <mxPoint x="95" y="220" />
            </Array>
          </mxGeometry>
        </mxCell>
        <mxCell id="NSiBCy43P0qRrKqBQ_9c-10" style="edgeStyle=orthogonalEdgeStyle;rounded=0;orthogonalLoop=1;jettySize=auto;html=1;entryX=0.9;entryY=0.5;entryDx=0;entryDy=0;entryPerimeter=0;fillColor=#f8cecc;strokeColor=#b85450;" edge="1" parent="1" source="NSiBCy43P0qRrKqBQ_9c-9" target="NSiBCy43P0qRrKqBQ_9c-6">
          <mxGeometry relative="1" as="geometry">
            <Array as="points" />
          </mxGeometry>
        </mxCell>
        <mxCell id="NSiBCy43P0qRrKqBQ_9c-9" value="" style="shape=mxgraph.mockup.markup.redX;fillColor=#ff0000;html=1;shadow=0;whiteSpace=wrap;strokeColor=none;" vertex="1" parent="1">
          <mxGeometry x="164" y="115" width="30" height="30" as="geometry" />
        </mxCell>
        <mxCell id="NSiBCy43P0qRrKqBQ_9c-15" value="" style="sketch=0;points=[[0,0,0],[0.25,0,0],[0.5,0,0],[0.75,0,0],[1,0,0],[0,1,0],[0.25,1,0],[0.5,1,0],[0.75,1,0],[1,1,0],[0,0.25,0],[0,0.5,0],[0,0.75,0],[1,0.25,0],[1,0.5,0],[1,0.75,0]];outlineConnect=0;fontColor=#232F3E;fillColor=#8C4FFF;strokeColor=#ffffff;dashed=0;verticalLabelPosition=bottom;verticalAlign=top;align=center;html=1;fontSize=12;fontStyle=0;aspect=fixed;shape=mxgraph.aws4.resourceIcon;resIcon=mxgraph.aws4.api_gateway;" vertex="1" parent="1">
          <mxGeometry x="350" y="200" width="78" height="78" as="geometry" />
        </mxCell>
        <mxCell id="NSiBCy43P0qRrKqBQ_9c-17" style="edgeStyle=orthogonalEdgeStyle;rounded=0;orthogonalLoop=1;jettySize=auto;html=1;entryX=0;entryY=0.5;entryDx=0;entryDy=0;entryPerimeter=0;startArrow=classic;startFill=1;fillColor=#d5e8d4;strokeColor=#82b366;" edge="1" parent="1" source="NSiBCy43P0qRrKqBQ_9c-15" target="NSiBCy43P0qRrKqBQ_9c-3">
          <mxGeometry relative="1" as="geometry" />
        </mxCell>
        <mxCell id="NSiBCy43P0qRrKqBQ_9c-18" value="MySQL&lt;br&gt;Database" style="outlineConnect=0;dashed=0;verticalLabelPosition=bottom;verticalAlign=top;align=center;html=1;shape=mxgraph.aws3.mysql_db_instance_2;fillColor=#2E73B8;gradientColor=none;" vertex="1" parent="1">
          <mxGeometry x="780" y="207.5" width="60" height="63" as="geometry" />
        </mxCell>
        <mxCell id="NSiBCy43P0qRrKqBQ_9c-19" style="edgeStyle=orthogonalEdgeStyle;rounded=0;orthogonalLoop=1;jettySize=auto;html=1;entryX=0;entryY=0.5;entryDx=0;entryDy=0;entryPerimeter=0;startArrow=classic;startFill=1;fillColor=#d5e8d4;strokeColor=#82b366;" edge="1" parent="1" source="NSiBCy43P0qRrKqBQ_9c-3" target="NSiBCy43P0qRrKqBQ_9c-18">
          <mxGeometry relative="1" as="geometry" />
        </mxCell>
        <mxCell id="NSiBCy43P0qRrKqBQ_9c-20" style="edgeStyle=orthogonalEdgeStyle;rounded=0;orthogonalLoop=1;jettySize=auto;html=1;entryX=1.013;entryY=0.819;entryDx=0;entryDy=0;entryPerimeter=0;fillColor=#d5e8d4;strokeColor=#82b366;" edge="1" parent="1" source="NSiBCy43P0qRrKqBQ_9c-15" target="NSiBCy43P0qRrKqBQ_9c-4">
          <mxGeometry relative="1" as="geometry">
            <mxPoint x="90" y="380" as="targetPoint" />
            <Array as="points">
              <mxPoint x="389" y="369" />
            </Array>
          </mxGeometry>
        </mxCell>
      </root>
    </mxGraphModel>
  </diagram>
</mxfile>
